<svg xmlns="http://www.w3.org/2000/svg" viewBox="0 0 1200 260"><rect width="1200" height="260" rx="24" fill="#091219"/><g font-family="Arial,sans-serif" fill="#f5f1e8" text-anchor="middle"><g transform="translate(40,55)"><rect width="150" height="120" rx="16" fill="#101e26" stroke="#d7ad59"/><text x="75" y="52" font-size="18" font-weight="700" fill="#f1d894">ЗЕМЛЯ</text><text x="75" y="82" font-size="12" fill="#aab6bc">участок</text></g><g transform="translate(230,55)"><rect width="150" height="120" rx="16" fill="#101e26" stroke="#d7ad59"/><text x="75" y="52" font-size="18" font-weight="700" fill="#f1d894">ПРОЕКТ</text><text x="75" y="82" font-size="12" fill="#aab6bc">архитектура</text></g><g transform="translate(420,55)"><rect width="150" height="120" rx="16" fill="#101e26" stroke="#d7ad59"/><text x="75" y="52" font-size="18" font-weight="700" fill="#f1d894">КАПИТАЛ</text><text x="75" y="82" font-size="12" fill="#aab6bc">финансирование</text></g><g transform="translate(610,55)"><rect width="150" height="120" rx="16" fill="#101e26" stroke="#d7ad59"/><text x="75" y="52" font-size="18" font-weight="700" fill="#f1d894">СТРОЙКА</text><text x="75" y="82" font-size="12" fill="#aab6bc">контроль</text></g><g transform="translate(800,55)"><rect width="150" height="120" rx="16" fill="#101e26" stroke="#d7ad59"/><text x="75" y="52" font-size="18" font-weight="700" fill="#f1d894">ПРОДАЖА</text><text x="75" y="82" font-size="12" fill="#aab6bc">рынок</text></g><g transform="translate(990,55)"><rect width="150" height="120" rx="16" fill="#101e26" stroke="#d7ad59"/><text x="75" y="52" font-size="18" font-weight="700" fill="#f1d894">СЕРВИС</text><text x="75" y="82" font-size="12" fill="#aab6bc">клиент</text></g></g><g stroke="#d7ad59" stroke-width="2" fill="none"><path d="M190 115h40l-10-6m10 6-10 6"/><path d="M380 115h40l-10-6m10 6-10 6"/><path d="M570 115h40l-10-6m10 6-10 6"/><path d="M760 115h40l-10-6m10 6-10 6"/><path d="M950 115h40l-10-6m10 6-10 6"/></g></svg>