<svg xmlns="http://www.w3.org/2000/svg" viewBox="0 0 1200 300"><rect width="1200" height="300" rx="24" fill="#091219"/><circle cx="600" cy="150" r="55" fill="#18262e" stroke="#d7ad59" stroke-width="2"/><text x="600" y="145" text-anchor="middle" fill="#f1d894" font-family="Arial" font-size="15" font-weight="700">ALADIN</text><text x="600" y="166" text-anchor="middle" fill="#aab6bc" font-family="Arial" font-size="11">CORE TEAM</text><g><line x1="600" y1="150" x2="180" y2="70" stroke="#d7ad59" stroke-width="2"/><rect x="80" y="42" width="200" height="56" rx="12" fill="#101e26" stroke="#293943"/><text x="180" y="75" text-anchor="middle" fill="#f5f1e8" font-family="Arial" font-size="12" font-weight="700">ARCHITECTURA</text></g><g><line x1="600" y1="150" x2="600" y2="50" stroke="#d7ad59" stroke-width="2"/><rect x="500" y="22" width="200" height="56" rx="12" fill="#101e26" stroke="#293943"/><text x="600" y="55" text-anchor="middle" fill="#f5f1e8" font-family="Arial" font-size="12" font-weight="700">INGENIUM</text></g><g><line x1="600" y1="150" x2="1020" y2="70" stroke="#d7ad59" stroke-width="2"/><rect x="920" y="42" width="200" height="56" rx="12" fill="#101e26" stroke="#293943"/><text x="1020" y="75" text-anchor="middle" fill="#f5f1e8" font-family="Arial" font-size="12" font-weight="700">CONSTRUCTIO</text></g><g><line x1="600" y1="150" x2="180" y2="225" stroke="#d7ad59" stroke-width="2"/><rect x="80" y="197" width="200" height="56" rx="12" fill="#101e26" stroke="#293943"/><text x="180" y="230" text-anchor="middle" fill="#f5f1e8" font-family="Arial" font-size="12" font-weight="700">CLAVIS</text></g><g><line x1="600" y1="150" x2="1020" y2="225" stroke="#d7ad59" stroke-width="2"/><rect x="920" y="197" width="200" height="56" rx="12" fill="#101e26" stroke="#293943"/><text x="1020" y="230" text-anchor="middle" fill="#f5f1e8" font-family="Arial" font-size="12" font-weight="700">FINANCE</text></g></svg>